<?xml version="1.0" encoding="utf-8"?>
<!-- Generator: Adobe Illustrator 25.3.0, SVG Export Plug-In . SVG Version: 6.00 Build 0)  -->
<svg version="1.1" id="Layer_2_1_" xmlns="http://www.w3.org/2000/svg" xmlns:xlink="http://www.w3.org/1999/xlink" x="0px" y="0px"
	 viewBox="0 0 500 400" style="enable-background:new 0 0 500 400;" xml:space="preserve">
<style type="text/css">
	.st0{fill:#F2F2F2;}
	.st1{fill:url(#SVGID_1_);}
	.st2{fill:url(#SVGID_2_);}
	.st3{fill:url(#SVGID_3_);}
	.st4{fill:url(#SVGID_4_);}
	.st5{fill:url(#SVGID_5_);}
	.st6{fill:url(#SVGID_6_);}
	.st7{fill:url(#SVGID_7_);}
	.st8{fill:url(#SVGID_8_);}
	.st9{fill:url(#SVGID_9_);}
	.st10{fill:url(#SVGID_10_);}
	.st11{fill:url(#SVGID_11_);}
	.st12{fill:url(#SVGID_12_);}
	.st13{fill:url(#SVGID_13_);}
	.st14{fill:url(#SVGID_14_);}
	.st15{fill:url(#SVGID_15_);}
	.st16{fill:url(#SVGID_16_);}
	.st17{fill:#46CB64;}
	.st18{fill:#3F3E55;}
	.st19{fill:#323244;}
</style>
<path class="st0" d="M429.6,330.36c0,0,53.96-75.34,0-171.55S265.77,28.91,181.56,54.45S38.65,148.22,53.87,240.21
	c0,0,2.08,61.94,37.22,88.03C120.17,349.83,379.28,351.68,429.6,330.36z"/>
<g>
	<g>
		
			<linearGradient id="SVGID_1_" gradientUnits="userSpaceOnUse" x1="262.3744" y1="290.7849" x2="263.1559" y2="242.6503" gradientTransform="matrix(1 0 0 -1 0 402)">
			<stop  offset="0" style="stop-color:#A04FDC"/>
			<stop  offset="1" style="stop-color:#7562D2"/>
		</linearGradient>
		<polygon class="st1" points="272.41,135.78 262.77,126.3 253.14,136.1 262.77,145.59 		"/>
		
			<linearGradient id="SVGID_2_" gradientUnits="userSpaceOnUse" x1="253.0898" y1="290.6343" x2="253.8712" y2="242.4997" gradientTransform="matrix(1 0 0 -1 0 402)">
			<stop  offset="0" style="stop-color:#A04FDC"/>
			<stop  offset="1" style="stop-color:#7562D2"/>
		</linearGradient>
		<path class="st2" d="M261.63,125.18l-9.9-9.74c-3.81,3.01-6.35,7.55-6.69,12.7l6.96,6.85L261.63,125.18z"/>
		
			<linearGradient id="SVGID_3_" gradientUnits="userSpaceOnUse" x1="247.4904" y1="290.5433" x2="248.2717" y2="242.4087" gradientTransform="matrix(1 0 0 -1 0 402)">
			<stop  offset="0" style="stop-color:#A04FDC"/>
			<stop  offset="1" style="stop-color:#7562D2"/>
		</linearGradient>
		<polygon class="st3" points="250.88,136.12 245,130.33 245,142.1 		"/>
		
			<linearGradient id="SVGID_4_" gradientUnits="userSpaceOnUse" x1="271.5408" y1="290.9338" x2="272.3223" y2="242.7992" gradientTransform="matrix(1 0 0 -1 0 402)">
			<stop  offset="0" style="stop-color:#A04FDC"/>
			<stop  offset="1" style="stop-color:#7562D2"/>
		</linearGradient>
		<path class="st4" d="M273.55,136.9l-9.65,9.81l9.87,9.71c3.78-3.07,6.27-7.68,6.51-12.88L273.55,136.9z"/>
		
			<linearGradient id="SVGID_5_" gradientUnits="userSpaceOnUse" x1="252.7997" y1="290.6295" x2="253.5811" y2="242.4949" gradientTransform="matrix(1 0 0 -1 0 402)">
			<stop  offset="0" style="stop-color:#A04FDC"/>
			<stop  offset="1" style="stop-color:#7562D2"/>
		</linearGradient>
		<path class="st5" d="M261.65,146.73l-9.65-9.49l-6.94,7.07c0.45,5.04,3.01,9.45,6.8,12.38L261.65,146.73z"/>
		
			<linearGradient id="SVGID_6_" gradientUnits="userSpaceOnUse" x1="262.0887" y1="290.7804" x2="262.87" y2="242.6458" gradientTransform="matrix(1 0 0 -1 0 402)">
			<stop  offset="0" style="stop-color:#A04FDC"/>
			<stop  offset="1" style="stop-color:#7562D2"/>
		</linearGradient>
		<path class="st6" d="M262.8,147.85l-9.61,9.77c2.74,1.74,5.98,2.75,9.47,2.75l0,0c3.65,0,7.02-1.1,9.84-2.99L262.8,147.85z"/>
		
			<linearGradient id="SVGID_7_" gradientUnits="userSpaceOnUse" x1="271.8112" y1="290.9381" x2="272.5926" y2="242.8035" gradientTransform="matrix(1 0 0 -1 0 402)">
			<stop  offset="0" style="stop-color:#A04FDC"/>
			<stop  offset="1" style="stop-color:#7562D2"/>
		</linearGradient>
		<path class="st7" d="M273.53,134.65l6.7-6.81c-0.42-5.05-2.96-9.5-6.73-12.45l-9.61,9.77L273.53,134.65z"/>
		
			<linearGradient id="SVGID_8_" gradientUnits="userSpaceOnUse" x1="262.563" y1="290.7881" x2="263.3445" y2="242.6535" gradientTransform="matrix(1 0 0 -1 0 402)">
			<stop  offset="0" style="stop-color:#A04FDC"/>
			<stop  offset="1" style="stop-color:#7562D2"/>
		</linearGradient>
		<path class="st8" d="M262.75,124.04l9.44-9.6c-2.75-1.78-6.03-2.8-9.55-2.8l0,0c-3.54,0-6.85,1.04-9.6,2.85L262.75,124.04z"/>
		
			<linearGradient id="SVGID_9_" gradientUnits="userSpaceOnUse" x1="277.1285" y1="291.0245" x2="277.91" y2="242.8899" gradientTransform="matrix(1 0 0 -1 0 402)">
			<stop  offset="0" style="stop-color:#A04FDC"/>
			<stop  offset="1" style="stop-color:#7562D2"/>
		</linearGradient>
		<polygon class="st9" points="274.67,135.77 280.3,141.3 280.3,130.04 		"/>
	</g>
	<g>
		
			<linearGradient id="SVGID_10_" gradientUnits="userSpaceOnUse" x1="271.7477" y1="291.758" x2="271.2789" y2="330.2032" gradientTransform="matrix(1 0 0 -1 0 402)">
			<stop  offset="0" style="stop-color:#A04FDC"/>
			<stop  offset="1" style="stop-color:#C442E3"/>
		</linearGradient>
		<path class="st10" d="M269.09,98.03c-0.03,0.02-3.15,1.95-6.3,4.77c2.21,1.92,4.54,4.19,6.11,6.4c2.48-4.99,5.12-8.48,5.28-8.72
			l0,0c2.98-5.07,6.22-8.69,6.22-8.69c-4.42,1.98-9.53,4.94-11.01,5.81L269.09,98.03z"/>
		
			<linearGradient id="SVGID_11_" gradientUnits="userSpaceOnUse" x1="262.6438" y1="291.647" x2="262.1749" y2="330.0922" gradientTransform="matrix(1 0 0 -1 0 402)">
			<stop  offset="0" style="stop-color:#A04FDC"/>
			<stop  offset="1" style="stop-color:#C442E3"/>
		</linearGradient>
		<path class="st11" d="M265.5,89.95l-3.14-19.42l-3.09,18.92c0.53,0.69,2.37,3.15,3.39,4.7C263.68,92.56,264.9,90.8,265.5,89.95z"
			/>
		
			<linearGradient id="SVGID_12_" gradientUnits="userSpaceOnUse" x1="268.0573" y1="291.713" x2="267.5884" y2="330.1581" gradientTransform="matrix(1 0 0 -1 0 402)">
			<stop  offset="0" style="stop-color:#A04FDC"/>
			<stop  offset="1" style="stop-color:#C442E3"/>
		</linearGradient>
		<path class="st12" d="M262.46,102.53c3.01-2.7,6-4.61,6.37-4.83l0.27-0.38c1.86-7.61,6.46-17.04,6.46-17.04
			c-3.41,2.56-8.37,8.19-9.66,9.68c-1.41,2-4.54,6.69-5.84,10.57C260.8,101.14,261.62,101.81,262.46,102.53z"/>
		
			<linearGradient id="SVGID_13_" gradientUnits="userSpaceOnUse" x1="256.3853" y1="291.5706" x2="255.9165" y2="330.0157" gradientTransform="matrix(1 0 0 -1 0 402)">
			<stop  offset="0" style="stop-color:#A04FDC"/>
			<stop  offset="1" style="stop-color:#C442E3"/>
		</linearGradient>
		<path class="st13" d="M259.71,100.27c0.7-2.03,1.74-4.03,2.74-5.71c-1.07-1.65-3.22-4.67-3.65-5.28
			c-4.06-4.93-9.04-8.89-9.04-8.89c3.2,5.74,6.05,14.96,6.75,17.31C256.87,97.98,258.27,99.15,259.71,100.27z"/>
		
			<linearGradient id="SVGID_14_" gradientUnits="userSpaceOnUse" x1="275.176" y1="291.7998" x2="274.7072" y2="330.245" gradientTransform="matrix(1 0 0 -1 0 402)">
			<stop  offset="0" style="stop-color:#A04FDC"/>
			<stop  offset="1" style="stop-color:#C442E3"/>
		</linearGradient>
		<path class="st14" d="M274.14,101.12c-0.93,1.34-3.15,4.86-4.32,7.1c4.85-5.95,10.56-8.33,10.56-8.33
			C278.27,99.2,275.29,100.53,274.14,101.12z"/>
		
			<linearGradient id="SVGID_15_" gradientUnits="userSpaceOnUse" x1="250.671" y1="291.501" x2="250.2021" y2="329.9461" gradientTransform="matrix(1 0 0 -1 0 402)">
			<stop  offset="0" style="stop-color:#A04FDC"/>
			<stop  offset="1" style="stop-color:#C442E3"/>
		</linearGradient>
		<path class="st15" d="M250.83,100.93c-2.86-1.47-6.75-1.23-6.75-1.23c7.26,3.17,12.61,11.95,12.61,11.95
			c0.14-0.08,0.29-0.16,0.45-0.24C255.11,106.08,251.79,102.11,250.83,100.93L250.83,100.93z"/>
		
			<linearGradient id="SVGID_16_" gradientUnits="userSpaceOnUse" x1="257.0749" y1="291.579" x2="256.6061" y2="330.0243" gradientTransform="matrix(1 0 0 -1 0 402)">
			<stop  offset="0" style="stop-color:#A04FDC"/>
			<stop  offset="1" style="stop-color:#C442E3"/>
		</linearGradient>
		<path class="st16" d="M255.89,97.74c-5.5-3.65-11.01-5.84-11.18-5.9c2.08,2.37,5.12,7.02,6.22,8.73
			c1.12,1.17,4.67,5.05,6.57,10.67c5.93-2.75,11.73,0.42,11.73,0.42l-0.43-1.84C265.28,104.57,256.32,98.06,255.89,97.74z"/>
	</g>
</g>
<g>
	<polygon style="fill: #45CB64;" points="370.16,101.15 262.53,213.18 231.44,181.49 143.19,270.72 143.19,248.22 231.48,158.94 262.4,190.46 
		358.74,90.18 	"/>
	<polygon style="fill: #3F3E55;" points="170.38,267.54 170.38,307.37 143.19,307.37 143.19,295.04 	"/>
	<polygon style="fill: #3F3E55;" points="210.59,226.89 210.59,307.37 183.41,307.37 183.41,254.37 	"/>
	<polygon style="fill: #3F3E55;" points="250.79,225.53 250.79,307.37 223.61,307.37 223.61,213.72 231.44,205.8 	"/>
	<polygon style="fill: #3F3E55;" points="291.01,207.77 291.01,307.37 263.82,307.37 263.82,236.14 	"/>
	<polygon style="fill: #3F3E55;" points="331.21,165.82 331.21,307.37 304.03,307.37 304.03,194.17 	"/>
	<polygon style="fill: #3F3E55;" points="371.43,123.85 371.43,307.37 344.24,307.37 344.24,152.23 	"/>
	<polygon class="st17" points="390.45,68.9 343.12,79.33 381.29,116.49 	"/>
	<polygon class="st19" points="130.08,320.2 130.08,68.83 117.55,68.83 117.55,320.2 117.55,332.72 130.08,332.72 393.27,332.72 
		393.27,320.2 	"/>
</g>
</svg>
