<?xml version="1.0" encoding="utf-8"?>
<!-- Generator: Adobe Illustrator 25.3.0, SVG Export Plug-In . SVG Version: 6.00 Build 0)  -->
<svg version="1.1" id="Layer_2_1_" xmlns="http://www.w3.org/2000/svg" xmlns:xlink="http://www.w3.org/1999/xlink" x="0px" y="0px"
	 viewBox="0 0 500 400" style="enable-background:new 0 0 500 400;" xml:space="preserve">
<style type="text/css">
	.st0{fill:#F2F2F2;}
	.st1{fill:#514E63;}
	.st2{fill:#494659;}
	.st3{fill:#3F3E55;}
	.st4{fill:#39384D;}
	.st5{fill:#3C3B51;}
	.st6{fill:#65627C;}
	.st7{fill:#5B5870;}
	.st8{fill:#FFFFFF;}
	.st9{fill:#4469B0;}
	.st10{fill:#F6B27A;}
	.st11{fill:#FD6786;}
	.st12{fill:#E65E7A;}
	.st13{fill:#FF8677;}
	.st14{fill:#46CB64;}
	.st15{fill:#636BE7;}
	.st16{fill:#FDD650;}
	.st17{fill:#FAF8FF;}
	.st18{fill:#4A4963;}
	.st19{fill:url(#SVGID_1_);}
	.st20{fill:url(#SVGID_2_);}
	.st21{fill:url(#SVGID_3_);}
	.st22{fill:url(#SVGID_4_);}
	.st23{fill:url(#SVGID_5_);}
	.st24{fill:url(#SVGID_6_);}
	.st25{fill:url(#SVGID_7_);}
	.st26{fill:url(#SVGID_8_);}
	.st27{fill:url(#SVGID_9_);}
	.st28{fill:url(#SVGID_10_);}
	.st29{fill:url(#SVGID_11_);}
	.st30{fill:url(#SVGID_12_);}
	.st31{fill:url(#SVGID_13_);}
	.st32{fill:url(#SVGID_14_);}
	.st33{fill:url(#SVGID_15_);}
	.st34{fill:url(#SVGID_16_);}
</style>
<path class="st0" d="M24.69,339.66c0,0-0.73-94.5,28.65-143.27s55.84-60.97,114.61-60.97s103.6-61.98,149.15-81.29
	s87.43-4.06,121.22,66.05s41.14,158.51,31.59,219.48H24.69z"/>
<polygon class="st1" points="60.92,334.37 83.85,320.51 420.78,317.61 449.33,332.1 449.33,339.68 60.92,341.96 "/>
<polygon class="st2" points="449.33,332.1 449.33,339.68 331.2,340.37 185.95,341.23 60.92,341.96 60.92,334.38 186.24,333.65 
	331.65,332.79 "/>
<rect x="132.85" y="319.06" class="st3" width="27.79" height="4.21"/>
<rect x="134.37" y="317.61" class="st4" width="24.74" height="1.45"/>
<polygon class="st5" points="159.12,309.49 134.37,309.95 134.37,308.5 159.12,308.05 "/>
<rect x="134.37" y="307.46" class="st3" width="24.74" height="11.6"/>
<path class="st6" d="M202.07,218.8v86.26c0,1.16-0.93,2.12-2.11,2.14l-97.95,2.02c-1.21,0.02-2.19-0.95-2.19-2.14V218.8
	c0-1.18,0.96-2.14,2.14-2.14h97.95C201.12,216.66,202.07,217.62,202.07,218.8z"/>
<polygon class="st4" points="196.92,298.56 106.09,300.34 106.09,221.89 196.92,221.89 "/>
<path class="st7" d="M102.02,309.22c-1.21,0.02-2.19-0.95-2.19-2.14V218.8c0-1.18,0.96-2.14,2.14-2.14L102.02,309.22z"/>
<g>
	<rect x="343.54" y="71.26" class="st8" width="43.07" height="56.87"/>
	<rect x="390.93" y="71.26" class="st8" width="43.07" height="56.87"/>
	<rect x="343.54" y="132.02" class="st8" width="43.07" height="56.87"/>
	<rect x="390.93" y="132.02" class="st8" width="43.07" height="56.87"/>
</g>
<g>
	<rect x="350.12" y="319.07" class="st3" width="27.79" height="4.21"/>
	<rect x="351.65" y="317.62" class="st4" width="24.74" height="1.45"/>
	<polygon class="st5" points="351.65,309.49 376.39,309.95 376.39,308.5 351.65,308.05 	"/>
	<rect x="351.65" y="307.46" class="st3" width="24.74" height="11.6"/>
	<path class="st6" d="M308.69,218.8v86.26c0,1.16,0.93,2.12,2.11,2.14l97.95,2.02c1.21,0.02,2.19-0.95,2.19-2.14V218.8
		c0-1.18-0.96-2.14-2.14-2.14h-97.95C309.65,216.66,308.69,217.62,308.69,218.8z"/>
	<polygon class="st4" points="313.85,298.56 404.68,300.34 404.68,221.89 313.85,221.89 	"/>
	<path class="st7" d="M408.75,309.22c1.21,0.02,2.19-0.95,2.19-2.14V218.8c0-1.18-0.96-2.14-2.14-2.14L408.75,309.22z"/>
</g>
<g>
	<rect x="245.44" y="319.07" class="st3" width="27.79" height="4.21"/>
	<rect x="246.97" y="317.62" class="st4" width="24.74" height="1.45"/>
	<polygon class="st5" points="246.96,309.49 271.7,309.95 271.7,308.5 246.96,308.05 	"/>
	<rect x="246.97" y="307.46" class="st3" width="24.74" height="11.6"/>
	<path class="st6" d="M204.01,218.8v86.26c0,1.16,0.93,2.12,2.11,2.14l97.95,2.02c1.21,0.02,2.19-0.95,2.19-2.14V218.8
		c0-1.18-0.96-2.14-2.14-2.14h-97.95C204.96,216.66,204.01,217.62,204.01,218.8z"/>
	<polygon class="st9" points="209.88,298.56 301.06,300.34 301.06,221.89 209.88,221.89 	"/>
</g>
<path class="st10" d="M251.61,258.71l1.45-16.59c0,0-4.08-3.81-8.06-12.83c0,0-4.67-0.38-6.61-6.26c-1.93-5.88,0.4-9.59,2.09-9.34
	c1.69,0.24,6.04,5.56,8.7,10.87c2.66,5.32,7.09,12.57,7.09,12.57h19.25c0,0,4.7-9.88,6.2-14.07c0,0,7.36-8.75,7.73-9.02
	s2.85-0.43,4.03,2.52s-1.93,11.38-6.98,12.35c0,0-0.51,0.08-0.71,0.42c-0.2,0.34-3.67,8.6-7.37,12.47l0.32,16.92h-27.13V258.71z"/>
<path class="st3" d="M239.61,213.89c0,0-2.73-14.42-1.95-24.56c0.53-6.86,3.58-9.99,11.09-8.91c0,0,5.48-8.38,19.98-7.73
	c14.5,0.64,24.24,9.24,25.01,12.89s1.82,17.25-2.36,28.6s-11.26,27.35-25.68,26.71C248.65,240.13,243.74,226.9,239.61,213.89z"/>
<path class="st11" d="M304.09,304.97c-0.24,1.31-0.42,2.62-0.54,3.93c-1.27,13.59,0.15,24.37-0.08,29.19l-77.3,0.3
	c0-1.05,0-2.57-0.01-4.39c-0.03-8.57,0.99-15.48-0.05-19.82c-0.18-0.78-0.27-6.66-0.37-8.08c-1.04-15-3.98-21.06-0.79-37
	c1.88-9.38,18.28-9.41,18.28-9.41s0.37-8.53,4.83-9.97c4.45-1.45,13.66-2.6,18.19-2.43c4.52,0.16,15.79,1.44,18.16,3.27
	c2.37,1.82,2.79,8.17,2.79,8.17c0.02,0.01,0.06,0.01,0.08,0.01c1.08,0.27,12.85,3.19,20.22,9.33
	C314.65,274,306.87,289.22,304.09,304.97z"/>
<path class="st12" d="M287.21,258.71c-26.64-5.26-43.98,0.96-43.98,0.96s0.38-8.52,4.83-9.96c4.46-1.45,13.67-2.61,18.19-2.44
	c4.53,0.16,15.8,1.45,18.17,3.27C286.78,252.37,287.21,258.71,287.21,258.71z"/>
<g>
	<rect x="119.86" y="237.6" class="st13" width="12.17" height="1.4"/>
	<rect x="119.86" y="230.58" class="st14" width="42.55" height="1.4"/>
	<rect x="165.8" y="230.58" class="st14" width="12.86" height="1.4"/>
	<rect x="123.88" y="244.42" class="st15" width="18.81" height="1.4"/>
	<rect x="142.69" y="264.46" class="st15" width="9.84" height="1.4"/>
	<rect x="144.31" y="279.07" class="st15" width="10.29" height="1.4"/>
	<rect x="120.6" y="272.58" class="st15" width="14.42" height="1.4"/>
	<rect x="136.83" y="257.84" class="st15" width="31.4" height="1.4"/>
	<rect x="171.9" y="257.84" class="st15" width="10.39" height="1.4"/>
	<rect x="123.86" y="292.62" class="st15" width="27.54" height="1.4"/>
	<rect x="145.9" y="244.42" class="st13" width="9.48" height="1.4"/>
	<rect x="160.2" y="244.42" class="st13" width="13.69" height="1.4"/>
	<rect x="128.87" y="264.46" class="st13" width="9.48" height="1.4"/>
	<rect x="156.57" y="264.46" class="st13" width="9.48" height="1.4"/>
	<rect x="161.31" y="279.07" class="st13" width="20.13" height="1.4"/>
	<rect x="130.42" y="285.97" class="st13" width="27.22" height="1.4"/>
	<rect x="155.65" y="292.62" class="st13" width="27.22" height="1.4"/>
	<rect x="134.26" y="237.6" class="st16" width="12.17" height="1.4"/>
	<rect x="130.32" y="251.23" class="st16" width="8.37" height="1.4"/>
	<rect x="173.89" y="251.23" class="st16" width="14.97" height="1.4"/>
	<rect x="140.67" y="272.58" class="st16" width="14.41" height="1.4"/>
	<rect x="128.46" y="279.07" class="st16" width="10.44" height="1.4"/>
	<rect x="160.18" y="285.97" class="st16" width="7.46" height="1.4"/>
	<rect x="143.51" y="251.23" class="st16" width="27.4" height="1.4"/>
	<rect x="111.96" y="291.58" class="st17" width="1.42" height="3.04"/>
	<rect x="111.96" y="285.15" class="st17" width="1.42" height="3.04"/>
	<rect x="111.96" y="278.25" class="st17" width="1.42" height="3.04"/>
	<rect x="111.96" y="271.75" class="st17" width="1.42" height="3.04"/>
	<rect x="111.96" y="263.63" class="st17" width="1.42" height="3.04"/>
	<rect x="111.96" y="257.02" class="st17" width="1.42" height="3.04"/>
	<rect x="111.96" y="250.41" class="st17" width="1.42" height="3.04"/>
	<rect x="111.96" y="243.59" class="st17" width="1.42" height="3.04"/>
	<rect x="111.96" y="236.78" class="st17" width="1.42" height="3.04"/>
	<rect x="111.96" y="229.96" class="st17" width="1.42" height="3.04"/>
</g>
<path class="st10" d="M300.55,254.04c0,0,10.82-7.82,14.16-10.71c4.07-3.52,11.06-16.23,13.09-19.34c0,0,0.35-1.63-0.34-4.93
	c-0.69-3.31-3.86-25.48-4.91-28.57c-1.06-3.09-2.17-2.77-3.34-2.99c-1.17-0.23-4.69-0.97-8.4-4.21s-4.19-4.31-4.38-5.23
	s-0.19-2.21-0.3-2.76s0.57-1.89,2.92-0.45c0,0-0.18-1.83,0.65-2.37c0.83-0.53,2.15,0.07,2.15,0.07s0.17-0.91,0.93-1.3
	c0.77-0.39,1.47,0.37,2.11,0.29c0.65-0.08,0.72-0.91,0.92-1.11s0.83-0.19,1.64,0.02c0.81,0.21,1.09-0.66,1.5-0.97
	s2.85,0.22,3.66,0.93c0.81,0.71,3.13,1.66,4.07,3.66c0.93,2,2.32,6.92,2.48,8.05c0.16,1.14,2.55,4.58,3.11,6.4
	c0.56,1.82,9.24,19.15,10.9,27.67c1.66,8.51,1.23,8.72,0.67,11.86s-5.63,21.36-11.28,28.61c-5.25,6.74-21.93,18.99-25.17,29.13
	C304.16,295.91,278.19,272.46,300.55,254.04z"/>
<path class="st11" d="M317.44,237.8c0,0,14.56,11.87,17.62,14.28c0,0-2.2,5.48-11.61,14.64c-10.54,10.25-15.96,19.89-17.98,26.41
	c-2.02,6.52-22.17-24.71-22.17-24.71l7.12-8.68c0,0,4.1-4.44,8.8-5.98c0,0,8.97-7.94,12.32-10.88c3.34-2.94,5.16-5.44,5.16-5.44
	L317.44,237.8z"/>
<path class="st10" d="M230.59,254.04c0,0-10.82-7.82-14.16-10.71c-4.07-3.52-11.06-16.23-13.09-19.34c0,0-0.35-1.63,0.34-4.93
	c0.69-3.31,3.86-25.48,4.91-28.57s2.17-2.77,3.34-2.99s4.69-0.97,8.4-4.21c3.71-3.24,4.19-4.31,4.38-5.23s0.19-2.21,0.3-2.76
	s-0.57-1.89-2.92-0.45c0,0,0.18-1.83-0.65-2.37c-0.83-0.53-2.15,0.07-2.15,0.07s-0.17-0.91-0.93-1.3s-1.47,0.37-2.11,0.29
	s-0.72-0.91-0.92-1.11s-0.83-0.19-1.64,0.02s-1.09-0.66-1.5-0.97s-2.85,0.22-3.66,0.93c-0.81,0.71-3.13,1.66-4.07,3.66
	c-0.93,2-2.32,6.92-2.48,8.05c-0.16,1.14-2.55,4.58-3.11,6.4c-0.56,1.82-9.24,19.15-10.9,27.67c-1.66,8.51-1.23,8.72-0.67,11.86
	s5.63,21.36,11.28,28.61c5.25,6.74,21.93,18.99,25.17,29.13C226.98,295.91,252.95,272.46,230.59,254.04z"/>
<path class="st11" d="M212.36,238.08c0,0-14.56,11.87-17.62,14.28c0,0,2.2,5.48,11.61,14.64c10.54,10.25,15.96,19.89,17.98,26.41
	s22.17-24.71,22.17-24.71l-7.12-8.68c0,0-4.1-4.44-8.8-5.98c0,0-8.97-7.94-12.32-10.88c-3.34-2.94-5.16-5.44-5.16-5.44
	L212.36,238.08z"/>
<path class="st11" d="M246.86,277.32c0,0-7.8,5.09-13.6,17.17c-5.8,12.08-9.34,22.07-9.34,22.07s8.33,9.34,22.93,11.76l6.79-8.64
	C253.65,319.68,267.7,281.58,246.86,277.32z"/>
<path class="st10" d="M240.08,340.91l-5.38,0.02l-39.93,0.24c-0.8-1.22-1.37-2.34-1.53-3.09c-0.54-2.58,11.82-31.15,11.82-31.15
	l20.6,11.16c0,0-7.07,10.1-7.29,11.82c-0.17,1.39,10.15,4.7,16.32,6.62c1.52,0.47,2.79,0.86,3.59,1.12
	C239.6,338.07,240.06,339.37,240.08,340.91z"/>
<path class="st4" d="M332.99,308c0,2.05-0.8,15.88-1.34,24.79c-0.26,4.39-0.45,7.58-0.45,7.58l-31.66,0.19l-59.45,0.35l-5.38,0.02
	l-39.93,0.24l-8.81,0.06l0.28-7.58l0.96-26.19c0,0,0.32-3.91,4.03-3.91c2.53,0,24.02,0.9,41.08,1.59
	c8.02,0.32,15.07,0.59,18.71,0.69c9.9,0.26,29.01,0.38,51.23-0.78c3.33-0.17,6.74-0.37,10.18-0.61c0,0,14.38-0.82,16.07-0.89
	c1.58-0.07,4.11,1.18,4.44,3.85C332.98,307.59,332.99,307.79,332.99,308z"/>
<path class="st18" d="M332.94,307.4c-0.95,0.05-53.21,2.29-70.99,1.82c-17.93-0.46-74.76-1.77-74.76-1.77s0.32-3.91,4.03-3.91
	c3.73,0,48.42,1.96,59.79,2.28c11.39,0.3,34.93,0.42,61.41-1.39c0,0,14.38-0.82,16.07-0.89
	C330.08,303.48,332.62,304.73,332.94,307.4z"/>
<g>
	<g>
		
			<linearGradient id="SVGID_1_" gradientUnits="userSpaceOnUse" x1="361.5771" y1="145.4809" x2="361.9834" y2="120.4556" gradientTransform="matrix(1 0 0 -1 0 402)">
			<stop  offset="0" style="stop-color:#A04FDC"/>
			<stop  offset="1" style="stop-color:#7562D2"/>
		</linearGradient>
		<polygon class="st19" points="366.8,269.29 361.79,264.36 356.78,269.46 361.79,274.39 		"/>
		
			<linearGradient id="SVGID_2_" gradientUnits="userSpaceOnUse" x1="356.7463" y1="145.4025" x2="357.1526" y2="120.3773" gradientTransform="matrix(1 0 0 -1 0 402)">
			<stop  offset="0" style="stop-color:#A04FDC"/>
			<stop  offset="1" style="stop-color:#7562D2"/>
		</linearGradient>
		<path class="st20" d="M361.2,263.78l-5.16-5.07c-1.98,1.56-3.31,3.93-3.49,6.6l3.62,3.56L361.2,263.78z"/>
		
			<linearGradient id="SVGID_3_" gradientUnits="userSpaceOnUse" x1="353.8417" y1="145.3554" x2="354.2479" y2="120.3301" gradientTransform="matrix(1 0 0 -1 0 402)">
			<stop  offset="0" style="stop-color:#A04FDC"/>
			<stop  offset="1" style="stop-color:#7562D2"/>
		</linearGradient>
		<polygon class="st21" points="355.61,269.47 352.54,266.45 352.54,272.58 		"/>
		
			<linearGradient id="SVGID_4_" gradientUnits="userSpaceOnUse" x1="366.3587" y1="145.5585" x2="366.7649" y2="120.5332" gradientTransform="matrix(1 0 0 -1 0 402)">
			<stop  offset="0" style="stop-color:#A04FDC"/>
			<stop  offset="1" style="stop-color:#7562D2"/>
		</linearGradient>
		<path class="st22" d="M367.4,269.87l-5.01,5.1l5.13,5.04c1.97-1.6,3.26-4,3.38-6.69L367.4,269.87z"/>
		
			<linearGradient id="SVGID_5_" gradientUnits="userSpaceOnUse" x1="356.6096" y1="145.4003" x2="357.0157" y2="120.375" gradientTransform="matrix(1 0 0 -1 0 402)">
			<stop  offset="0" style="stop-color:#A04FDC"/>
			<stop  offset="1" style="stop-color:#7562D2"/>
		</linearGradient>
		<path class="st23" d="M361.21,274.98l-5.01-4.93l-3.61,3.67c0.23,2.62,1.57,4.91,3.53,6.44L361.21,274.98z"/>
		
			<linearGradient id="SVGID_6_" gradientUnits="userSpaceOnUse" x1="361.4232" y1="145.4784" x2="361.8294" y2="120.4531" gradientTransform="matrix(1 0 0 -1 0 402)">
			<stop  offset="0" style="stop-color:#A04FDC"/>
			<stop  offset="1" style="stop-color:#7562D2"/>
		</linearGradient>
		<path class="st24" d="M361.8,275.56l-5,5.08c1.43,0.9,3.11,1.44,4.92,1.44l0,0c1.89,0,3.65-0.57,5.11-1.56L361.8,275.56z"/>
		
			<linearGradient id="SVGID_7_" gradientUnits="userSpaceOnUse" x1="366.4935" y1="145.5608" x2="366.8998" y2="120.5355" gradientTransform="matrix(1 0 0 -1 0 402)">
			<stop  offset="0" style="stop-color:#A04FDC"/>
			<stop  offset="1" style="stop-color:#7562D2"/>
		</linearGradient>
		<path class="st25" d="M367.39,268.7l3.49-3.54c-0.21-2.63-1.54-4.93-3.5-6.47l-5,5.08L367.39,268.7z"/>
		
			<linearGradient id="SVGID_8_" gradientUnits="userSpaceOnUse" x1="361.6803" y1="145.4827" x2="362.0866" y2="120.4573" gradientTransform="matrix(1 0 0 -1 0 402)">
			<stop  offset="0" style="stop-color:#A04FDC"/>
			<stop  offset="1" style="stop-color:#7562D2"/>
		</linearGradient>
		<path class="st26" d="M361.77,263.19l4.91-4.99c-1.44-0.92-3.13-1.46-4.97-1.46l0,0c-1.84,0-3.55,0.55-4.99,1.48L361.77,263.19z"
			/>
		
			<linearGradient id="SVGID_9_" gradientUnits="userSpaceOnUse" x1="369.2558" y1="145.6056" x2="369.6621" y2="120.5803" gradientTransform="matrix(1 0 0 -1 0 402)">
			<stop  offset="0" style="stop-color:#A04FDC"/>
			<stop  offset="1" style="stop-color:#7562D2"/>
		</linearGradient>
		<polygon class="st27" points="367.98,269.28 370.91,272.17 370.91,266.31 		"/>
	</g>
	<g>
		
			<linearGradient id="SVGID_10_" gradientUnits="userSpaceOnUse" x1="366.4553" y1="145.9869" x2="366.2116" y2="165.9747" gradientTransform="matrix(1 0 0 -1 0 402)">
			<stop  offset="0" style="stop-color:#A04FDC"/>
			<stop  offset="1" style="stop-color:#C442E3"/>
		</linearGradient>
		<path class="st28" d="M365.07,249.66c-0.01,0.01-1.64,1.01-3.27,2.48c1.15,0.99,2.36,2.18,3.17,3.33
			c1.29-2.59,2.66-4.41,2.74-4.53l0,0c1.55-2.64,3.24-4.51,3.24-4.51c-2.29,1.04-4.95,2.57-5.72,3.02L365.07,249.66z"/>
		
			<linearGradient id="SVGID_11_" gradientUnits="userSpaceOnUse" x1="361.7219" y1="145.9292" x2="361.4781" y2="165.9169" gradientTransform="matrix(1 0 0 -1 0 402)">
			<stop  offset="0" style="stop-color:#A04FDC"/>
			<stop  offset="1" style="stop-color:#C442E3"/>
		</linearGradient>
		<path class="st29" d="M363.21,245.46l-1.64-10.1l-1.6,9.84c0.27,0.36,1.22,1.64,1.77,2.45
			C362.26,246.82,362.9,245.91,363.21,245.46z"/>
		
			<linearGradient id="SVGID_12_" gradientUnits="userSpaceOnUse" x1="364.5286" y1="145.9634" x2="364.2849" y2="165.9512" gradientTransform="matrix(1 0 0 -1 0 402)">
			<stop  offset="0" style="stop-color:#A04FDC"/>
			<stop  offset="1" style="stop-color:#C442E3"/>
		</linearGradient>
		<path class="st30" d="M361.63,252c1.57-1.4,3.12-2.39,3.31-2.52l0.14-0.2c0.96-3.95,3.35-8.85,3.35-8.85
			c-1.77,1.33-4.34,4.25-5.02,5.03c-0.73,1.04-2.36,3.47-3.04,5.5C360.76,251.28,361.18,251.62,361.63,252z"/>
		
			<linearGradient id="SVGID_13_" gradientUnits="userSpaceOnUse" x1="358.4684" y1="145.8895" x2="358.2247" y2="165.8773" gradientTransform="matrix(1 0 0 -1 0 402)">
			<stop  offset="0" style="stop-color:#A04FDC"/>
			<stop  offset="1" style="stop-color:#C442E3"/>
		</linearGradient>
		<path class="st31" d="M360.19,250.83c0.37-1.06,0.9-2.09,1.43-2.97c-0.56-0.86-1.67-2.43-1.89-2.74c-2.12-2.56-4.7-4.62-4.7-4.62
			c1.66,2.98,3.14,7.77,3.51,9C358.71,249.64,359.45,250.25,360.19,250.83z"/>
		
			<linearGradient id="SVGID_14_" gradientUnits="userSpaceOnUse" x1="368.2328" y1="146.0086" x2="367.989" y2="165.9963" gradientTransform="matrix(1 0 0 -1 0 402)">
			<stop  offset="0" style="stop-color:#A04FDC"/>
			<stop  offset="1" style="stop-color:#C442E3"/>
		</linearGradient>
		<path class="st32" d="M367.7,251.28c-0.48,0.69-1.64,2.53-2.25,3.69c2.53-3.1,5.49-4.33,5.49-4.33
			C369.84,250.27,368.3,250.96,367.7,251.28z"/>
		
			<linearGradient id="SVGID_15_" gradientUnits="userSpaceOnUse" x1="355.4984" y1="145.8533" x2="355.2546" y2="165.841" gradientTransform="matrix(1 0 0 -1 0 402)">
			<stop  offset="0" style="stop-color:#A04FDC"/>
			<stop  offset="1" style="stop-color:#C442E3"/>
		</linearGradient>
		<path class="st33" d="M355.58,251.17c-1.49-0.77-3.51-0.65-3.51-0.65c3.77,1.65,6.55,6.21,6.55,6.21
			c0.08-0.04,0.16-0.08,0.23-0.12C357.8,253.85,356.08,251.79,355.58,251.17L355.58,251.17z"/>
		
			<linearGradient id="SVGID_16_" gradientUnits="userSpaceOnUse" x1="358.829" y1="145.8939" x2="358.5853" y2="165.8817" gradientTransform="matrix(1 0 0 -1 0 402)">
			<stop  offset="0" style="stop-color:#A04FDC"/>
			<stop  offset="1" style="stop-color:#C442E3"/>
		</linearGradient>
		<path class="st34" d="M358.21,249.52c-2.86-1.89-5.72-3.04-5.81-3.07c1.08,1.22,2.66,3.65,3.24,4.53c0.59,0.6,2.43,2.63,3.42,5.55
			c3.08-1.43,6.09,0.21,6.09,0.21l-0.22-0.96C363.1,253.07,358.43,249.68,358.21,249.52z"/>
	</g>
</g>
</svg>
