<?xml version="1.0" encoding="utf-8"?>
<!-- Generator: Adobe Illustrator 25.3.0, SVG Export Plug-In . SVG Version: 6.00 Build 0)  -->
<svg version="1.1" id="Layer_2" xmlns="http://www.w3.org/2000/svg" xmlns:xlink="http://www.w3.org/1999/xlink" x="0px" y="0px"
	 viewBox="0 0 500 400" style="enable-background:new 0 0 500 400;" xml:space="preserve">
<style type="text/css">
	.st0{fill:none;stroke:#3F3E55;stroke-miterlimit:10;}
	.st1{fill:#F2F2F2;}
	.st2{fill:#3F3E55;}
	.st3{fill:#323244;}
	.st4{fill:#514E63;}
	.st5{fill:#494659;}
	.st6{fill:#39384D;}
	.st7{fill:#3C3B51;}
	.st8{fill:#65627C;}
	.st9{fill:#5B5870;}
	.st10{fill:#FFFFFF;}
	.st11{fill:#4469B0;}
	.st12{fill:#F6B27A;}
	.st13{fill:#FD6786;}
	.st14{fill:#E65E7A;}
	.st15{fill:#FF8677;}
	.st16{fill:#46CB64;}
	.st17{fill:#636BE7;}
	.st18{fill:#FDD650;}
	.st19{fill:#FAF8FF;}
	.st20{fill:#4A4963;}
	.st21{font-family:'WorkSans-Bold';}
	.st22{font-size:14.6576px;}
	.st23{fill:#67DBF9;}
	.st24{fill:url(#SVGID_1_);}
	.st25{fill:url(#SVGID_2_);}
	.st26{fill:url(#SVGID_3_);}
	.st27{fill:url(#SVGID_4_);}
	.st28{fill:url(#SVGID_5_);}
	.st29{fill:url(#SVGID_6_);}
	.st30{fill:url(#SVGID_7_);}
	.st31{fill:url(#SVGID_8_);}
	.st32{fill:url(#SVGID_9_);}
	.st33{fill:url(#SVGID_10_);}
	.st34{fill:url(#SVGID_11_);}
	.st35{fill:url(#SVGID_12_);}
	.st36{fill:url(#SVGID_13_);}
	.st37{fill:url(#SVGID_14_);}
	.st38{fill:url(#SVGID_15_);}
	.st39{fill:url(#SVGID_16_);}
	.st40{fill:url(#SVGID_17_);}
	.st41{fill:url(#SVGID_18_);}
	.st42{fill:url(#SVGID_19_);}
	.st43{fill:url(#SVGID_20_);}
	.st44{fill:url(#SVGID_21_);}
	.st45{fill:url(#SVGID_22_);}
	.st46{fill:url(#SVGID_23_);}
	.st47{fill:url(#SVGID_24_);}
	.st48{fill:url(#SVGID_25_);}
	.st49{fill:url(#SVGID_26_);}
	.st50{fill:url(#SVGID_27_);}
	.st51{fill:url(#SVGID_28_);}
	.st52{fill:url(#SVGID_29_);}
	.st53{fill:url(#SVGID_30_);}
	.st54{fill:url(#SVGID_31_);}
	.st55{fill:url(#SVGID_32_);}
</style>
<path class="st1" d="M463.88,249.6c0,28.75-6.53,56.1-18.31,80.89l-408.8,0c-11.78-24.79-18.31-52.15-18.31-80.89
	c0-112.32,99.71-203.38,222.71-203.38S463.88,137.28,463.88,249.6z"/>
<ellipse class="st2" cx="245.1" cy="330.5" rx="218.78" ry="12.03"/>
<ellipse class="st3" cx="245.1" cy="327.57" rx="194.95" ry="9.1"/>
<path class="st2" d="M410.56,328.97H72.32c-5.42,0-9.81-4.39-9.81-9.81V120.24c0-5.42,4.39-9.81,9.81-9.81h338.24
	c5.42,0,9.81,4.39,9.81,9.81v198.93C420.36,324.58,415.97,328.97,410.56,328.97z"/>
<path class="st3" d="M62.51,135.76h357.85v-15.59c0-5.38-4.36-9.74-9.74-9.74H72.25c-5.38,0-9.74,4.36-9.74,9.74V135.76z"/>
<circle class="st2" cx="83.68" cy="123.1" r="5.32"/>
<circle class="st2" cx="99.01" cy="123.1" r="5.32"/>
<circle class="st2" cx="114.35" cy="123.1" r="5.32"/>
<g>
	<rect x="115.93" y="176.08" class="st15" width="29.59" height="3.4"/>
	<rect x="115.93" y="159.01" class="st16" width="139.97" height="3.4"/>
	<rect x="273.64" y="159.01" class="st16" width="62.53" height="3.4"/>
	<rect x="125.7" y="192.66" class="st17" width="45.74" height="3.4"/>
	<rect x="171.44" y="241.38" class="st17" width="23.92" height="3.4"/>
	<rect x="175.37" y="276.91" class="st17" width="25.02" height="3.4"/>
	<rect x="117.74" y="261.12" class="st17" width="35.06" height="3.4"/>
	<rect x="157.19" y="225.3" class="st17" width="76.35" height="3.4"/>
	<rect x="242.46" y="225.3" class="st17" width="25.27" height="3.4"/>
	<rect x="125.66" y="309.84" class="st17" width="66.95" height="3.4"/>
	<rect x="179.24" y="192.66" class="st15" width="23.05" height="3.4"/>
	<rect x="214.02" y="192.66" class="st15" width="33.29" height="3.4"/>
	<rect x="137.85" y="241.38" class="st15" width="23.05" height="3.4"/>
	<rect x="205.18" y="241.38" class="st15" width="23.05" height="3.4"/>
	<rect x="216.7" y="276.91" class="st15" width="48.93" height="3.4"/>
	<rect x="141.6" y="293.68" class="st15" width="66.18" height="3.4"/>
	<rect x="202.95" y="309.84" class="st15" width="66.18" height="3.4"/>
	<rect x="280.17" y="309.84" class="st15" width="66.18" height="3.4"/>
	<rect x="150.94" y="176.08" class="st18" width="29.59" height="3.4"/>
	<rect x="141.37" y="209.23" class="st18" width="20.35" height="3.4"/>
	<rect x="247.31" y="209.23" class="st18" width="36.39" height="3.4"/>
	<rect x="166.52" y="261.12" class="st18" width="35.04" height="3.4"/>
	<rect x="136.84" y="276.91" class="st18" width="25.38" height="3.4"/>
	<rect x="213.97" y="293.68" class="st18" width="18.14" height="3.4"/>
	<rect x="173.44" y="209.23" class="st18" width="66.61" height="3.4"/>
	<rect x="96.72" y="307.33" class="st19" width="3.46" height="7.4"/>
	<rect x="96.72" y="291.68" class="st19" width="3.46" height="7.4"/>
	<rect x="96.72" y="274.91" class="st19" width="3.46" height="7.4"/>
	<rect x="96.72" y="259.12" class="st19" width="3.46" height="7.4"/>
	<rect x="96.72" y="239.38" class="st19" width="3.46" height="7.4"/>
	<rect x="96.72" y="223.3" class="st19" width="3.46" height="7.4"/>
	<rect x="96.72" y="207.22" class="st19" width="3.46" height="7.4"/>
	<rect x="96.72" y="190.65" class="st19" width="3.46" height="7.4"/>
	<rect x="96.72" y="174.08" class="st19" width="3.46" height="7.4"/>
	<rect x="96.72" y="157.51" class="st19" width="3.46" height="7.4"/>
	<text transform="matrix(1.0955 0 0 1 115.9255 153.1008)" class="st16 st21 st22">&lt;/&gt;...</text>
</g>
</svg>
