<svg width="36" height="90" xmlns="http://www.w3.org/2000/svg" xml:space="preserve" version="1.1">
 <defs>
  <linearGradient y2="1.71331" x2="0.51977" y1="-0.78201" x1="0.47921" id="SVGID_1_">
   <stop stop-color="#A04FDC" offset="0"/>
   <stop stop-color="#7562D2" offset="1"/>
  </linearGradient>
  <linearGradient y2="2.25372" x2="0.53232" y1="-0.2084" x1="0.48522" id="SVGID_2_">
   <stop stop-color="#A04FDC" offset="0"/>
   <stop stop-color="#7562D2" offset="1"/>
  </linearGradient>
  <linearGradient y2="2.48609" x2="0.55641" y1="-1.60351" x1="0.42354" id="SVGID_3_">
   <stop stop-color="#A04FDC" offset="0"/>
   <stop stop-color="#7562D2" offset="1"/>
  </linearGradient>
  <linearGradient y2="1.14246" x2="0.51418" y1="-1.32345" x1="0.46647" id="SVGID_4_">
   <stop stop-color="#A04FDC" offset="0"/>
   <stop stop-color="#7562D2" offset="1"/>
  </linearGradient>
  <linearGradient y2="1.14474" x2="0.51363" y1="-1.33005" x1="0.46653" id="SVGID_5_">
   <stop stop-color="#A04FDC" offset="0"/>
   <stop stop-color="#7562D2" offset="1"/>
  </linearGradient>
  <linearGradient y2="0.91887" x2="0.50129" y1="-2.92575" x1="0.46083" id="SVGID_6_">
   <stop stop-color="#A04FDC" offset="0"/>
   <stop stop-color="#7562D2" offset="1"/>
  </linearGradient>
  <linearGradient y2="2.27448" x2="0.53259" y1="-0.22472" x1="0.48477" id="SVGID_7_">
   <stop stop-color="#A04FDC" offset="0"/>
   <stop stop-color="#7562D2" offset="1"/>
  </linearGradient>
  <linearGradient y2="3.8473" x2="0.53809" y1="-0.03452" x1="0.49728" id="SVGID_8_">
   <stop stop-color="#A04FDC" offset="0"/>
   <stop stop-color="#7562D2" offset="1"/>
  </linearGradient>
  <linearGradient y2="2.58171" x2="0.57549" y1="-1.69312" x1="0.43668" id="SVGID_9_">
   <stop stop-color="#A04FDC" offset="0"/>
   <stop stop-color="#7562D2" offset="1"/>
  </linearGradient>
  <linearGradient y2="-1.14837" x2="0.48205" y1="1.05985" x1="0.50867" id="SVGID_10_">
   <stop stop-color="#A04FDC" offset="0"/>
   <stop stop-color="#C442E3" offset="1"/>
  </linearGradient>
  <linearGradient y2="0.05833" x2="0.46628" y1="1.68599" x1="0.54154" id="SVGID_11_">
   <stop stop-color="#A04FDC" offset="0"/>
   <stop stop-color="#C442E3" offset="1"/>
  </linearGradient>
  <linearGradient y2="-0.37924" x2="0.4857" y1="1.34863" x1="0.51595" id="SVGID_12_">
   <stop stop-color="#A04FDC" offset="0"/>
   <stop stop-color="#C442E3" offset="1"/>
  </linearGradient>
  <linearGradient y2="-0.42282" x2="0.48515" y1="1.51104" x1="0.52209" id="SVGID_13_">
   <stop stop-color="#A04FDC" offset="0"/>
   <stop stop-color="#C442E3" offset="1"/>
  </linearGradient>
  <linearGradient y2="-3.27807" x2="0.4628" y1="1.23232" x1="0.5072" id="SVGID_14_">
   <stop stop-color="#A04FDC" offset="0"/>
   <stop stop-color="#C442E3" offset="1"/>
  </linearGradient>
  <linearGradient y2="-2.30945" x2="0.46877" y1="0.9038" x1="0.50467" id="SVGID_15_">
   <stop stop-color="#A04FDC" offset="0"/>
   <stop stop-color="#C442E3" offset="1"/>
  </linearGradient>
  <linearGradient y2="-1.00223" x2="0.48516" y1="0.93749" x1="0.50428" id="SVGID_16_">
   <stop stop-color="#A04FDC" offset="0"/>
   <stop stop-color="#C442E3" offset="1"/>
  </linearGradient>
 </defs>
 <g>
  <title>Layer 1</title>
  <g id="svg_1">
   <g id="svg_2">
    <polygon id="svg_3" fill="url(#SVGID_1_)" points="28.33000373840332,65.24999904632568 18.68998908996582,55.77000331878662 9.059999465942383,65.57000637054443 18.68998908996582,75.05999660491943 " class="st1"/>
    <path id="svg_4" fill="url(#SVGID_2_)" d="m17.55,54.65l-9.9,-9.74c-3.81,3.01 -6.35,7.55 -6.69,12.7l6.96,6.85l9.63,-9.81z" class="st2"/>
    <polygon id="svg_5" fill="url(#SVGID_3_)" points="6.800004959106445,65.58999538421631 0.9200000762939453,59.800002098083496 0.9200000762939453,71.57000637054443 " class="st3"/>
    <path id="svg_6" fill="url(#SVGID_4_)" d="m29.47,66.37l-9.65,9.81l9.87,9.71c3.78,-3.07 6.27,-7.68 6.51,-12.88l-6.73,-6.64z" class="st4"/>
    <path id="svg_7" fill="url(#SVGID_5_)" d="m17.57,76.2l-9.65,-9.49l-6.94,7.07c0.45,5.04 3.01,9.45 6.8,12.38l9.79,-9.96z" class="st5"/>
    <path id="svg_8" fill="url(#SVGID_6_)" d="m18.72,77.32l-9.61,9.77c2.74,1.74 5.98,2.75 9.47,2.75l0,0c3.65,0 7.02,-1.1 9.84,-2.99l-9.7,-9.53z" class="st6"/>
    <path id="svg_9" fill="url(#SVGID_7_)" d="m29.45,64.12l6.7,-6.81c-0.42,-5.05 -2.96,-9.5 -6.73,-12.45l-9.61,9.77l9.64,9.49z" class="st7"/>
    <path id="svg_10" fill="url(#SVGID_8_)" d="m18.67,53.51l9.44,-9.6c-2.75,-1.78 -6.03,-2.8 -9.55,-2.8l0,0c-3.54,0 -6.85,1.04 -9.6,2.85l9.71,9.55z" class="st8"/>
    <polygon id="svg_11" fill="url(#SVGID_9_)" points="30.59001350402832,65.24000453948975 36.219987869262695,70.77000331878662 36.219987869262695,59.50999355316162 " class="st9"/>
   </g>
   <g id="svg_12">
    <path id="svg_13" fill="url(#SVGID_10_)" d="m25.01,27.5c-0.03,0.02 -3.15,1.95 -6.3,4.77c2.21,1.92 4.54,4.19 6.11,6.4c2.48,-4.99 5.12,-8.48 5.28,-8.72l0,0c2.98,-5.07 6.22,-8.69 6.22,-8.69c-4.42,1.98 -9.53,4.94 -11.01,5.81l-0.3,0.43z" class="st10"/>
    <path id="svg_14" fill="url(#SVGID_11_)" d="m21.42,19.42l-3.14,-19.42l-3.09,18.92c0.53,0.69 2.37,3.15 3.39,4.7c1.02,-1.59 2.24,-3.35 2.84,-4.2z" class="st11"/>
    <path id="svg_15" fill="url(#SVGID_12_)" d="m18.38,32c3.01,-2.7 6,-4.61 6.37,-4.83l0.27,-0.38c1.86,-7.61 6.46,-17.04 6.46,-17.04c-3.41,2.56 -8.37,8.19 -9.66,9.68c-1.41,2 -4.54,6.69 -5.84,10.57c0.74,0.61 1.56,1.28 2.4,2z" class="st12"/>
    <path id="svg_16" fill="url(#SVGID_13_)" d="m15.63,29.74c0.7,-2.03 1.74,-4.03 2.74,-5.71c-1.07,-1.65 -3.22,-4.67 -3.65,-5.28c-4.06,-4.93 -9.04,-8.89 -9.04,-8.89c3.2,5.74 6.05,14.96 6.75,17.31c0.36,0.28 1.76,1.45 3.2,2.57z" class="st13"/>
    <path id="svg_17" fill="url(#SVGID_14_)" d="m30.06,30.59c-0.93,1.34 -3.15,4.86 -4.32,7.1c4.85,-5.95 10.56,-8.33 10.56,-8.33c-2.11,-0.69 -5.09,0.64 -6.24,1.23z" class="st14"/>
    <path id="svg_18" fill="url(#SVGID_15_)" d="m6.75,30.4c-2.86,-1.47 -6.75,-1.23 -6.75,-1.23c7.26,3.17 12.61,11.95 12.61,11.95c0.14,-0.08 0.29,-0.16 0.45,-0.24c-2.03,-5.33 -5.35,-9.3 -6.31,-10.48l0,0z" class="st15"/>
    <path id="svg_19" fill="url(#SVGID_16_)" d="m11.81,27.21c-5.5,-3.65 -11.01,-5.84 -11.18,-5.9c2.08,2.37 5.12,7.02 6.22,8.73c1.12,1.17 4.67,5.05 6.57,10.67c5.93,-2.75 11.73,0.42 11.73,0.42l-0.43,-1.84c-3.52,-5.25 -12.48,-11.76 -12.91,-12.08z" class="st16"/>
   </g>
  </g>
 </g>
</svg>